<?xml version="1.0" standalone="no"?>
<!DOCTYPE svg PUBLIC "-//W3C//DTD SVG 20010904//EN"
 "http://www.w3.org/TR/2001/REC-SVG-20010904/DTD/svg10.dtd">
<svg version="1.0" xmlns="http://www.w3.org/2000/svg"
 width="96.000000pt" height="96.000000pt" viewBox="0 0 96.000000 96.000000"
 preserveAspectRatio="xMidYMid meet">
<metadata>
Created by potrace 1.16, written by Peter Selinger 2001-2019
</metadata>
<g transform="translate(0.000000,96.000000) scale(0.100000,-0.100000)"
fill="#000000" stroke="none">
<path d="M375 901 c-50 -22 -109 -86 -125 -136 -7 -20 -10 -67 -8 -105 3 -56
11 -84 46 -152 49 -98 170 -263 192 -263 22 0 145 168 193 264 68 137 64 250
-12 334 -49 55 -101 77 -181 77 -42 0 -79 -7 -105 -19z m159 -167 c15 -16 26
-38 26 -54 0 -36 -44 -80 -80 -80 -37 0 -80 44 -80 82 0 17 10 39 25 53 32 33
75 33 109 -1z"/>
<path d="M250 336 c-111 -30 -170 -77 -170 -136 0 -97 157 -160 400 -160 244
0 400 63 400 161 0 31 -6 43 -39 71 -36 31 -99 59 -161 71 -20 5 -30 -2 -53
-34 -19 -27 -23 -41 -15 -43 7 -2 35 -9 62 -16 58 -13 106 -36 106 -51 0 -13
-73 -44 -138 -58 -75 -16 -265 -14 -340 4 -69 16 -122 40 -122 55 0 14 49 37
106 50 27 7 55 14 62 16 8 2 4 16 -15 43 -16 22 -30 40 -33 40 -3 0 -25 -6
-50 -13z"/>
</g>
</svg>
