<?xml version="1.0" standalone="no"?>
<!DOCTYPE svg PUBLIC "-//W3C//DTD SVG 20010904//EN"
 "http://www.w3.org/TR/2001/REC-SVG-20010904/DTD/svg10.dtd">
<svg version="1.0" xmlns="http://www.w3.org/2000/svg"
 width="96.000000pt" height="96.000000pt" viewBox="0 0 96.000000 96.000000"
 preserveAspectRatio="xMidYMid meet">

<g transform="translate(0.000000,96.000000) scale(0.100000,-0.100000)"
fill="#000000" stroke="none">
<path d="M105 855 c-25 -24 -25 -27 -25 -195 0 -168 0 -171 25 -195 23 -24 29
-25 155 -25 126 0 132 1 155 25 25 24 25 27 25 195 0 168 0 171 -25 195 -23
24 -29 25 -155 25 -126 0 -132 -1 -155 -25z"/>
<path d="M545 855 c-23 -22 -25 -32 -25 -115 0 -83 2 -93 25 -115 23 -24 29
-25 155 -25 126 0 132 1 155 25 23 22 25 32 25 115 0 83 -2 93 -25 115 -23 24
-29 25 -155 25 -126 0 -132 -1 -155 -25z"/>
<path d="M545 495 c-25 -24 -25 -27 -25 -195 0 -168 0 -171 25 -195 23 -24 29
-25 155 -25 126 0 132 1 155 25 25 24 25 27 25 195 0 168 0 171 -25 195 -23
24 -29 25 -155 25 -126 0 -132 -1 -155 -25z"/>
<path d="M105 335 c-23 -22 -25 -32 -25 -115 0 -83 2 -93 25 -115 23 -24 29
-25 155 -25 126 0 132 1 155 25 23 22 25 32 25 115 0 83 -2 93 -25 115 -23 24
-29 25 -155 25 -126 0 -132 -1 -155 -25z"/>
</g>
</svg>
