<?xml version="1.0" standalone="no"?>
<!DOCTYPE svg PUBLIC "-//W3C//DTD SVG 20010904//EN"
 "http://www.w3.org/TR/2001/REC-SVG-20010904/DTD/svg10.dtd">
<svg version="1.0" xmlns="http://www.w3.org/2000/svg"
 width="96.000000pt" height="96.000000pt" viewBox="0 0 96.000000 96.000000"
 preserveAspectRatio="xMidYMid meet">

<g transform="translate(0.000000,96.000000) scale(0.100000,-0.100000)"
fill="#000000" stroke="none">
<path d="M605 740 c-45 -18 -75 -20 -283 -20 l-233 0 -24 -25 c-25 -24 -25
-26 -25 -215 0 -189 0 -191 25 -215 l24 -25 236 0 c129 0 235 2 235 3 0 2 -33
16 -72 32 -40 15 -77 32 -83 36 -5 5 -71 9 -147 9 l-138 0 0 160 0 160 260 0
260 0 0 -101 c0 -114 7 -107 -83 -73 -43 17 -50 17 -75 4 -15 -9 -30 -29 -36
-47 -15 -54 7 -74 148 -132 134 -55 177 -61 276 -40 l50 11 0 123 0 124 -51
62 c-89 106 -163 178 -189 184 -14 2 -47 -4 -75 -15z"/>
<path d="M260 580 c-11 -11 -20 -29 -20 -40 0 -26 34 -60 60 -60 26 0 60 34
60 60 0 11 -9 29 -20 40 -11 11 -29 20 -40 20 -11 0 -29 -9 -40 -20z"/>
<path d="M232 403 l-37 -38 53 -3 c28 -2 76 -2 105 0 l52 3 -36 38 c-28 27
-45 37 -69 37 -24 0 -41 -10 -68 -37z"/>
</g>
</svg>
