<?xml version="1.0" standalone="no"?>
<!DOCTYPE svg PUBLIC "-//W3C//DTD SVG 20010904//EN"
 "http://www.w3.org/TR/2001/REC-SVG-20010904/DTD/svg10.dtd">
<svg version="1.0" xmlns="http://www.w3.org/2000/svg"
 width="96.000000pt" height="96.000000pt" viewBox="0 0 96.000000 96.000000"
 preserveAspectRatio="xMidYMid meet">

<g transform="translate(0.000000,96.000000) scale(0.100000,-0.100000)"
fill="#000000" stroke="none">
<path d="M694 795 c-21 -52 -18 -63 24 -74 20 -6 60 -17 87 -26 28 -8 51 -15
51 -15 1 0 7 21 14 46 16 57 6 69 -71 89 -79 21 -88 20 -105 -20z"/>
<path d="M209 665 c-47 -26 -88 -102 -114 -215 -29 -125 -13 -197 50 -227 36
-17 47 -16 138 14 13 4 17 0 17 -18 0 -48 34 -66 85 -44 32 13 36 12 45 -5 10
-19 59 -50 79 -50 12 0 -11 58 -45 112 -21 32 -30 39 -52 36 -22 -2 -29 2 -37
27 -16 48 -56 56 -116 22 -56 -31 -84 -34 -93 -11 -27 71 43 282 97 292 10 2
29 -4 42 -12 19 -13 25 -25 25 -54 0 -34 4 -39 33 -50 18 -7 36 -12 40 -12 4
0 7 27 7 59 0 49 -5 65 -25 89 -47 56 -122 76 -176 47z"/>
<path d="M593 452 l-62 -217 32 -57 31 -57 60 32 59 32 58 200 c32 110 60 208
61 219 3 15 -11 23 -77 42 -44 13 -84 24 -90 24 -5 0 -38 -98 -72 -218z"/>
</g>
</svg>
