<?xml version="1.0" standalone="no"?>
<!DOCTYPE svg PUBLIC "-//W3C//DTD SVG 20010904//EN"
 "http://www.w3.org/TR/2001/REC-SVG-20010904/DTD/svg10.dtd">
<svg version="1.0" xmlns="http://www.w3.org/2000/svg"
 width="96.000000pt" height="96.000000pt" viewBox="0 0 96.000000 96.000000"
 preserveAspectRatio="xMidYMid meet">

<g transform="translate(0.000000,96.000000) scale(0.100000,-0.100000)"
fill="#000000" stroke="none">
<path d="M185 855 c-50 -49 -15 -135 55 -135 41 0 80 39 80 80 0 41 -39 80
-80 80 -19 0 -40 -9 -55 -25z"/>
<path d="M400 800 l0 -40 180 0 180 0 0 -180 0 -180 -160 0 -160 0 0 -40 0
-40 48 0 47 0 50 -120 50 -120 43 0 c23 0 42 2 42 4 0 2 -22 55 -49 118 l-48
113 94 5 c79 4 97 8 109 24 11 16 14 66 14 238 0 205 -1 219 -20 238 -19 19
-33 20 -220 20 l-200 0 0 -40z"/>
<path d="M145 655 l-25 -24 0 -276 0 -275 40 0 40 0 0 120 0 120 40 0 40 0 0
-120 0 -120 40 0 40 0 0 260 0 260 120 0 120 0 0 40 0 40 -215 0 c-216 0 -216
0 -240 -25z"/>
</g>
</svg>
