<svg xmlns="http://www.w3.org/2000/svg" xmlns:xlink="http://www.w3.org/1999/xlink" viewBox="0,0,256,256" width="500px" height="500px" fill-rule="nonzero"><g fill="#4caf50" fill-rule="nonzero" stroke="none" stroke-width="1" stroke-linecap="butt" stroke-linejoin="miter" stroke-miterlimit="10" stroke-dasharray="" stroke-dashoffset="0" font-family="none" font-weight="none" font-size="none" text-anchor="none" style="mix-blend-mode: normal"><g transform="scale(5.12,5.12)"><path d="M43.69922,2.09766h-37.48437c-2.30078,0 -4.21484,1.91797 -4.21484,4.21484v37.48438c0,2.28906 1.91406,4.20313 4.21484,4.20313h37.48438c2.28516,0 4.19922,-1.91406 4.19922,-4.20312v-37.48437c0,-2.29687 -1.91406,-4.21484 -4.19922,-4.21484zM16.15625,33h-5.35937c-0.78516,-0.02734 -0.96094,-0.69141 -0.57031,-1.26172l5.55078,-10.23828c0.18359,-0.1875 0.18359,-0.46094 0,-0.65625l-3.66016,-6.39062c-0.19531,-0.38281 0,-0.95312 0.38281,-0.95312h5.5c0.19531,0 0.38672,0.04297 0.57813,0.38281l4.08203,7.15625c0.18359,0.1875 0.18359,0.37109 0,0.57031l-5.93359,10.89844c0,0 -0.22656,0.47266 -0.57031,0.49219zM39.48828,8.79688l-10.73828,19.70313c-0.1875,0.19531 -0.1875,0.30469 0,0.5l6.90625,12.30469c0.38281,0.72656 0,1.19531 -0.56641,1.19531h-5.35156c-0.19531,0 -0.3125,-0.13281 -0.58203,-0.61719l-7.26562,-12.88281c-0.13281,-0.14844 -0.12891,-0.32812 0,-0.50781l11.09766,-20.46484c0.22266,-0.42969 0.56641,-0.52734 0.76172,-0.52734h5.25c0.67578,-0.01953 0.78906,0.6875 0.48828,1.29688z"></path></g></g></svg>