<?xml version="1.0" standalone="no"?>
<!DOCTYPE svg PUBLIC "-//W3C//DTD SVG 20010904//EN"
 "http://www.w3.org/TR/2001/REC-SVG-20010904/DTD/svg10.dtd">
<svg version="1.0" xmlns="http://www.w3.org/2000/svg"
 width="96.000000pt" height="96.000000pt" viewBox="0 0 96.000000 96.000000"
 preserveAspectRatio="xMidYMid meet">

<g transform="translate(0.000000,96.000000) scale(0.100000,-0.100000)"
fill="#000000" stroke="none">
<path d="M155 871 c-46 -20 -69 -59 -73 -126 l-4 -65 41 0 41 0 0 -260 0 -260
100 0 100 0 0 40 0 40 -60 0 -60 0 0 220 0 220 219 0 220 0 3 51 c3 59 25 82
56 63 15 -10 17 -39 20 -323 l2 -311 41 0 40 0 -3 325 -3 325 -33 32 -32 33
-298 2 c-163 1 -306 -2 -317 -6z"/>
<path d="M320 520 l0 -40 180 0 180 0 0 40 0 40 -180 0 -180 0 0 -40z"/>
<path d="M320 360 l0 -40 40 0 40 0 0 40 0 40 -40 0 -40 0 0 -40z"/>
<path d="M515 391 c-11 -5 -31 -21 -45 -36 -31 -33 -35 -112 -7 -142 13 -15
17 -37 17 -92 l0 -72 40 23 40 23 40 -23 40 -23 0 72 c0 55 4 77 18 92 11 13
17 35 17 68 0 41 -5 53 -31 80 -33 33 -92 46 -129 30z m75 -86 c15 -18 10 -45
-12 -59 -35 -22 -74 27 -48 59 16 19 44 19 60 0z"/>
</g>
</svg>
