<?xml version="1.0" standalone="no"?>
<!DOCTYPE svg PUBLIC "-//W3C//DTD SVG 20010904//EN"
 "http://www.w3.org/TR/2001/REC-SVG-20010904/DTD/svg10.dtd">
<svg version="1.0" xmlns="http://www.w3.org/2000/svg"
 width="96.000000pt" height="96.000000pt" viewBox="0 0 96.000000 96.000000"
 preserveAspectRatio="xMidYMid meet">

<g transform="translate(0.000000,96.000000) scale(0.100000,-0.100000)"
fill="#000000" stroke="none">
<path d="M325 791 c-92 -24 -173 -90 -215 -176 -33 -69 -34 -199 -2 -265 35
-71 75 -114 144 -151 58 -31 70 -34 148 -33 72 0 93 4 136 26 75 40 107 70
145 140 31 58 34 70 34 148 0 78 -3 90 -34 148 -57 104 -144 160 -260 167 -36
2 -79 1 -96 -4z m105 -76 c0 -17 14 -39 40 -64 30 -29 40 -46 40 -69 0 -30 -2
-32 -34 -32 -30 0 -35 4 -41 29 -10 44 -47 53 -57 13 -9 -32 10 -61 60 -92 54
-33 72 -63 72 -118 0 -46 -19 -75 -60 -92 -21 -9 -30 -19 -30 -36 0 -17 -6
-24 -20 -24 -15 0 -20 7 -20 24 0 16 -7 27 -20 31 -31 10 -70 63 -70 96 0 26
3 29 33 29 26 0 35 -6 47 -33 18 -39 44 -46 60 -17 20 37 4 67 -51 96 -28 16
-57 40 -65 56 -30 59 -8 135 46 158 24 10 30 19 30 41 0 22 5 29 20 29 15 0
20 -7 20 -25z"/>
<path d="M572 787 c152 -58 237 -183 226 -331 -11 -131 -91 -231 -226 -283
l-37 -14 58 6 c108 10 195 69 248 167 31 58 34 70 34 148 0 78 -3 90 -34 148
-54 100 -138 157 -248 167 l-58 6 37 -14z"/>
</g>
</svg>
