<?xml version="1.0" standalone="no"?>
<!DOCTYPE svg PUBLIC "-//W3C//DTD SVG 20010904//EN"
 "http://www.w3.org/TR/2001/REC-SVG-20010904/DTD/svg10.dtd">
<svg version="1.0" xmlns="http://www.w3.org/2000/svg"
 width="96.000000pt" height="96.000000pt" viewBox="0 0 96.000000 96.000000"
 preserveAspectRatio="xMidYMid meet">

<g transform="translate(0.000000,96.000000) scale(0.100000,-0.100000)"
fill="#000000" stroke="none">
<path d="M185 855 c-50 -49 -15 -135 55 -135 41 0 80 39 80 80 0 41 -39 80
-80 80 -19 0 -40 -9 -55 -25z"/>
<path d="M400 800 l0 -40 180 0 180 0 0 -160 0 -160 -160 0 -160 0 0 -40 0
-40 180 0 c239 0 220 -20 220 240 0 187 -1 201 -20 220 -19 19 -33 20 -220 20
l-200 0 0 -40z"/>
<path d="M145 655 c-24 -23 -25 -29 -25 -160 l0 -135 120 0 120 0 0 120 0 120
120 0 120 0 0 40 0 40 -215 0 c-216 0 -216 0 -240 -25z"/>
<path d="M185 255 c-33 -32 -33 -78 0 -110 49 -50 135 -15 135 55 0 41 -39 80
-80 80 -19 0 -40 -9 -55 -25z"/>
<path d="M425 255 c-50 -49 -15 -135 55 -135 41 0 80 39 80 80 0 41 -39 80
-80 80 -19 0 -40 -9 -55 -25z"/>
<path d="M665 255 c-50 -49 -15 -135 55 -135 41 0 80 39 80 80 0 41 -39 80
-80 80 -19 0 -40 -9 -55 -25z"/>
</g>
</svg>
